<svg width="315" height="85" viewBox="0 0 315 85" fill="none" xmlns="http://www.w3.org/2000/svg">
<circle cx="42.5" cy="42.5" r="40.5" stroke="url(#paint0_linear)" stroke-width="4"/>
<mask id="mask0" style="mask-type:alpha" maskUnits="userSpaceOnUse" x="13" y="21" width="60" height="42">
<line y1="-1" x2="18.8665" y2="-1" transform="matrix(0.729643 0.683828 -0.649039 0.760755 56.7419 49.832)" stroke="black" stroke-width="2"/>
<path d="M55.9104 47.6774L58.0334 48.3053L56.7496 49.8155L55.9104 47.6774Z" fill="#FF0000"/>
<path d="M35.522 38.7191C35.5047 38.4071 35.4917 38.0821 35.483 37.7441C35.483 37.4061 35.4787 37.0421 35.47 36.6521C35.4613 36.2621 35.457 35.8418 35.457 35.3911C35.457 34.9318 35.457 34.4205 35.457 33.8571V32.2321L34.677 32.6351C34.4603 32.7738 34.287 32.8561 34.157 32.8821C34.0357 32.9081 33.9013 32.9211 33.754 32.9211C33.624 32.9211 33.507 32.8648 33.403 32.7521C33.3077 32.6395 33.26 32.5051 33.26 32.3491C33.26 32.1931 33.312 32.0588 33.416 31.9461C33.5287 31.8248 33.6587 31.7165 33.806 31.6211C33.9967 31.4911 34.2003 31.3611 34.417 31.2311C34.6423 31.1011 34.859 30.9841 35.067 30.8801C35.275 30.7675 35.4657 30.6808 35.639 30.6201C35.821 30.5508 35.9727 30.5161 36.094 30.5161C36.1547 30.5161 36.2153 30.5248 36.276 30.5421C36.3453 30.5595 36.406 30.5941 36.458 30.6461C36.5187 30.6981 36.5663 30.7805 36.601 30.8931C36.6443 30.9971 36.6703 31.1401 36.679 31.3221C36.6963 31.6341 36.7093 31.9071 36.718 32.1411C36.7267 32.3751 36.7353 32.6048 36.744 32.8301C36.7527 33.0468 36.757 33.2765 36.757 33.5191C36.757 33.7618 36.757 34.0435 36.757 34.3641C36.757 34.7541 36.757 35.1268 36.757 35.4821C36.757 35.8375 36.7527 36.1885 36.744 36.5351C36.7353 36.8818 36.7267 37.2328 36.718 37.5881C36.7093 37.9435 36.6963 38.3161 36.679 38.7061C36.6703 38.9141 36.6487 39.0745 36.614 39.1871C36.588 39.2998 36.549 39.3865 36.497 39.4471C36.445 39.5078 36.3843 39.5425 36.315 39.5511C36.2543 39.5685 36.1807 39.5771 36.094 39.5771C35.938 39.5771 35.808 39.5251 35.704 39.4211C35.6 39.3085 35.5393 39.0745 35.522 38.7191ZM38.0522 35.0791C38.0522 34.5505 38.0999 34.0088 38.1952 33.4541C38.2992 32.8995 38.4812 32.3968 38.7412 31.9461C39.0012 31.4955 39.3522 31.1271 39.7942 30.8411C40.2449 30.5551 40.8169 30.4121 41.5102 30.4121C42.0562 30.4121 42.5199 30.4945 42.9012 30.6591C43.2912 30.8238 43.6119 31.0405 43.8632 31.3091C44.1146 31.5778 44.3096 31.8855 44.4482 32.2321C44.5869 32.5701 44.6909 32.9255 44.7602 33.2981C44.8296 33.6708 44.8686 34.0391 44.8772 34.4031C44.8946 34.7671 44.9032 35.1008 44.9032 35.4041C44.9032 36.0108 44.8296 36.5698 44.6822 37.0811C44.5436 37.5838 44.3269 38.0171 44.0322 38.3811C43.7462 38.7451 43.3822 39.0311 42.9402 39.2391C42.5069 39.4385 41.9956 39.5381 41.4062 39.5381C40.7909 39.5381 40.2666 39.4211 39.8332 39.1871C39.4086 38.9445 39.0619 38.6238 38.7932 38.2251C38.5332 37.8178 38.3426 37.3455 38.2212 36.8081C38.1086 36.2621 38.0522 35.6858 38.0522 35.0791ZM39.3522 35.0531C39.3522 35.4778 39.3869 35.8851 39.4562 36.2751C39.5342 36.6565 39.6556 36.9945 39.8202 37.2891C39.9849 37.5751 40.1972 37.8048 40.4572 37.9781C40.7259 38.1515 41.0509 38.2381 41.4322 38.2381C41.7962 38.2381 42.1126 38.1645 42.3812 38.0171C42.6586 37.8698 42.8882 37.6661 43.0702 37.4061C43.2522 37.1375 43.3866 36.8211 43.4732 36.4571C43.5599 36.0931 43.6032 35.6988 43.6032 35.2741C43.6032 34.9535 43.5902 34.5895 43.5642 34.1821C43.5382 33.7661 43.4559 33.3761 43.3172 33.0121C43.1872 32.6481 42.9792 32.3405 42.6932 32.0891C42.4072 31.8378 42.0086 31.7121 41.4972 31.7121C41.0639 31.7121 40.7086 31.8161 40.4312 32.0241C40.1626 32.2321 39.9459 32.5008 39.7812 32.8301C39.6166 33.1508 39.5039 33.5105 39.4432 33.9091C39.3826 34.2991 39.3522 34.6805 39.3522 35.0531ZM45.9487 35.0791C45.9487 34.5505 45.9964 34.0088 46.0917 33.4541C46.1957 32.8995 46.3777 32.3968 46.6377 31.9461C46.8977 31.4955 47.2487 31.1271 47.6907 30.8411C48.1414 30.5551 48.7134 30.4121 49.4067 30.4121C49.9527 30.4121 50.4164 30.4945 50.7977 30.6591C51.1877 30.8238 51.5084 31.0405 51.7597 31.3091C52.011 31.5778 52.206 31.8855 52.3447 32.2321C52.4834 32.5701 52.5874 32.9255 52.6567 33.2981C52.726 33.6708 52.765 34.0391 52.7737 34.4031C52.791 34.7671 52.7997 35.1008 52.7997 35.4041C52.7997 36.0108 52.726 36.5698 52.5787 37.0811C52.44 37.5838 52.2234 38.0171 51.9287 38.3811C51.6427 38.7451 51.2787 39.0311 50.8367 39.2391C50.4034 39.4385 49.892 39.5381 49.3027 39.5381C48.6874 39.5381 48.163 39.4211 47.7297 39.1871C47.305 38.9445 46.9584 38.6238 46.6897 38.2251C46.4297 37.8178 46.239 37.3455 46.1177 36.8081C46.005 36.2621 45.9487 35.6858 45.9487 35.0791ZM47.2487 35.0531C47.2487 35.4778 47.2834 35.8851 47.3527 36.2751C47.4307 36.6565 47.552 36.9945 47.7167 37.2891C47.8814 37.5751 48.0937 37.8048 48.3537 37.9781C48.6224 38.1515 48.9474 38.2381 49.3287 38.2381C49.6927 38.2381 50.009 38.1645 50.2777 38.0171C50.555 37.8698 50.7847 37.6661 50.9667 37.4061C51.1487 37.1375 51.283 36.8211 51.3697 36.4571C51.4564 36.0931 51.4997 35.6988 51.4997 35.2741C51.4997 34.9535 51.4867 34.5895 51.4607 34.1821C51.4347 33.7661 51.3524 33.3761 51.2137 33.0121C51.0837 32.6481 50.8757 32.3405 50.5897 32.0891C50.3037 31.8378 49.905 31.7121 49.3937 31.7121C48.9604 31.7121 48.605 31.8161 48.3277 32.0241C48.059 32.2321 47.8424 32.5008 47.6777 32.8301C47.513 33.1508 47.4004 33.5105 47.3397 33.9091C47.279 34.2991 47.2487 34.6805 47.2487 35.0531Z" fill="black"/>
<line x1="14" y1="23.8569" x2="14" y2="57.2653" stroke="black" stroke-width="2"/>
<line x1="72" y1="23" x2="72" y2="56.4084" stroke="black" stroke-width="2"/>
<line x1="13" y1="22.8569" x2="73" y2="22.8569" stroke="black" stroke-width="2"/>
<line x1="13" y1="56.2653" x2="73" y2="56.2653" stroke="black" stroke-width="2"/>
<line x1="43.75" y1="57" x2="43.75" y2="60.9304" stroke="black" stroke-width="1.5"/>
<line y1="-0.5" x2="5.95841" y2="-0.5" transform="matrix(-0.944044 0.32982 -0.303076 -0.952967 43.625 60)" stroke="black"/>
<line y1="-0.5" x2="5.95841" y2="-0.5" transform="matrix(-0.944044 -0.32982 0.303076 -0.952967 49.625 61.9652)" stroke="black"/>
<path d="M32.5 44.4251C35.7244 43.5372 39.6045 43.2884 43.6034 43.0806C46.96 42.9062 50.0325 43.0806 53.9286 43.7057" stroke="#FF0000" stroke-width="2" stroke-linecap="round"/>
</mask>
<g mask="url(#mask0)">
<rect x="13" y="18" width="63" height="45" fill="url(#paint1_linear)"/>
</g>
<path d="M112.339 50.252C110.683 50.252 109.195 49.964 107.875 49.388C106.579 48.788 105.559 47.972 104.815 46.94C104.071 45.884 103.687 44.672 103.663 43.304H107.155C107.275 44.48 107.755 45.476 108.595 46.292C109.459 47.084 110.707 47.48 112.339 47.48C113.899 47.48 115.123 47.096 116.011 46.328C116.923 45.536 117.379 44.528 117.379 43.304C117.379 42.344 117.115 41.564 116.587 40.964C116.059 40.364 115.399 39.908 114.607 39.596C113.815 39.284 112.747 38.948 111.403 38.588C109.747 38.156 108.415 37.724 107.407 37.292C106.423 36.86 105.571 36.188 104.851 35.276C104.155 34.34 103.807 33.092 103.807 31.532C103.807 30.164 104.155 28.952 104.851 27.896C105.547 26.84 106.519 26.024 107.767 25.448C109.039 24.872 110.491 24.584 112.123 24.584C114.475 24.584 116.395 25.172 117.883 26.348C119.395 27.524 120.247 29.084 120.439 31.028H116.839C116.719 30.068 116.215 29.228 115.327 28.508C114.439 27.764 113.263 27.392 111.799 27.392C110.431 27.392 109.315 27.752 108.451 28.472C107.587 29.168 107.155 30.152 107.155 31.424C107.155 32.336 107.407 33.08 107.911 33.656C108.439 34.232 109.075 34.676 109.819 34.988C110.587 35.276 111.655 35.612 113.023 35.996C114.679 36.452 116.011 36.908 117.019 37.364C118.027 37.796 118.891 38.48 119.611 39.416C120.331 40.328 120.691 41.576 120.691 43.16C120.691 44.384 120.367 45.536 119.719 46.616C119.071 47.696 118.111 48.572 116.839 49.244C115.567 49.916 114.067 50.252 112.339 50.252ZM143.008 30.272V50H139.732V47.084C139.108 48.092 138.232 48.884 137.104 49.46C136 50.012 134.776 50.288 133.432 50.288C131.896 50.288 130.516 49.976 129.292 49.352C128.068 48.704 127.096 47.744 126.376 46.472C125.68 45.2 125.332 43.652 125.332 41.828V30.272H128.572V41.396C128.572 43.34 129.064 44.84 130.048 45.896C131.032 46.928 132.376 47.444 134.08 47.444C135.832 47.444 137.212 46.904 138.22 45.824C139.228 44.744 139.732 43.172 139.732 41.108V30.272H143.008ZM151.816 33.908C152.464 32.78 153.424 31.844 154.696 31.1C155.992 30.332 157.492 29.948 159.196 29.948C160.948 29.948 162.532 30.368 163.948 31.208C165.388 32.048 166.516 33.236 167.332 34.772C168.148 36.284 168.556 38.048 168.556 40.064C168.556 42.056 168.148 43.832 167.332 45.392C166.516 46.952 165.388 48.164 163.948 49.028C162.532 49.892 160.948 50.324 159.196 50.324C157.516 50.324 156.028 49.952 154.732 49.208C153.46 48.44 152.488 47.492 151.816 46.364V59.36H148.54V30.272H151.816V33.908ZM165.208 40.064C165.208 38.576 164.908 37.28 164.308 36.176C163.708 35.072 162.892 34.232 161.86 33.656C160.852 33.08 159.736 32.792 158.512 32.792C157.312 32.792 156.196 33.092 155.164 33.692C154.156 34.268 153.34 35.12 152.716 36.248C152.116 37.352 151.816 38.636 151.816 40.1C151.816 41.588 152.116 42.896 152.716 44.024C153.34 45.128 154.156 45.98 155.164 46.58C156.196 47.156 157.312 47.444 158.512 47.444C159.736 47.444 160.852 47.156 161.86 46.58C162.892 45.98 163.708 45.128 164.308 44.024C164.908 42.896 165.208 41.576 165.208 40.064ZM198.32 25.088V50H195.044V31.424L186.764 50H184.46L176.144 31.388V50H172.868V25.088H176.396L185.612 45.68L194.828 25.088H198.32ZM202.652 40.064C202.652 38.048 203.06 36.284 203.876 34.772C204.692 33.236 205.808 32.048 207.224 31.208C208.664 30.368 210.26 29.948 212.012 29.948C213.74 29.948 215.24 30.32 216.512 31.064C217.784 31.808 218.732 32.744 219.356 33.872V30.272H222.668V50H219.356V46.328C218.708 47.48 217.736 48.44 216.44 49.208C215.168 49.952 213.68 50.324 211.976 50.324C210.224 50.324 208.64 49.892 207.224 49.028C205.808 48.164 204.692 46.952 203.876 45.392C203.06 43.832 202.652 42.056 202.652 40.064ZM219.356 40.1C219.356 38.612 219.056 37.316 218.456 36.212C217.856 35.108 217.04 34.268 216.008 33.692C215 33.092 213.884 32.792 212.66 32.792C211.436 32.792 210.32 33.08 209.312 33.656C208.304 34.232 207.5 35.072 206.9 36.176C206.3 37.28 206 38.576 206 40.064C206 41.576 206.3 42.896 206.9 44.024C207.5 45.128 208.304 45.98 209.312 46.58C210.32 47.156 211.436 47.444 212.66 47.444C213.884 47.444 215 47.156 216.008 46.58C217.04 45.98 217.856 45.128 218.456 44.024C219.056 42.896 219.356 41.588 219.356 40.1ZM231.48 33.476C232.056 32.348 232.872 31.472 233.928 30.848C235.008 30.224 236.316 29.912 237.852 29.912V33.296H236.988C233.316 33.296 231.48 35.288 231.48 39.272V50H228.204V30.272H231.48V33.476ZM252.649 50L244.909 41.288V50H241.633V23.36H244.909V39.02L252.505 30.272H257.077L247.789 40.1L257.113 50H252.649Z" fill="#C7BEFF"/>
<defs>
<linearGradient id="paint0_linear" x1="42.5" y1="0" x2="42.5" y2="85" gradientUnits="userSpaceOnUse">
<stop stop-color="#1762A7"/>
<stop offset="0.9999" stop-color="#BC3A80"/>
<stop offset="1" stop-color="#FDFDFD"/>
</linearGradient>
<linearGradient id="paint1_linear" x1="44.5" y1="18" x2="44.5" y2="63" gradientUnits="userSpaceOnUse">
<stop stop-color="#1762A7"/>
<stop offset="1" stop-color="#BC3A80"/>
</linearGradient>
</defs>
</svg>
